P3
# None -21
20 20
49
21 21 21
21 21 21
21 21 21
16 16 16
15 15 15
15 15 15
13 13 13
13 13 13
13 13 13
13 13 13
13 13 13
13 13 13
13 13 13
13 13 13
13 13 13
13 13 13
15 15 15
20 20 20
20 20 20
20 20 20
21 21 21
21 21 21
21 21 21
25 25 25
20 20 20
11 11 11
22 22 22
16 16 16
15 15 15
37 37 37
9 9 9
11 11 11
21 21 21
12 12 12
20 20 20
13 13 13
11 11 11
20 20 20
20 20 20
20 20 20
17 17 17
17 17 17
9 9 9
21 21 21
26 26 26
7 7 7
8 8 8
21 21 21
27 27 27
23 23 23
35 35 35
19 19 19
11 11 11
25 25 25
24 24 24
25 25 25
12 12 12
18 18 18
20 20 20
20 20 20
17 17 17
23 23 23
43 43 43
11 11 11
22 22 22
21 21 21
17 17 17
12 12 12
16 16 16
8 8 8
14 14 14
13 13 13
16 16 16
6 6 6
9 9 9
34 34 34
28 28 28
24 24 24
19 19 19
19 19 19
12 12 12
25 25 25
36 36 36
25 25 25
25 25 25
49 49 49
28 28 28
36 36 36
25 25 25
31 31 31
22 22 22
26 26 26
22 22 22
28 28 28
15 15 15
29 29 29
19 19 19
22 22 22
15 15 15
11 11 11
12 12 12
13 13 13
8 8 8
6 6 6
2 2 2
21 21 21
28 28 28
31 31 31
15 15 15
31 31 31
11 11 11
16 16 16
37 37 37
23 23 23
31 31 31
24 24 24
38 38 38
30 30 30
14 14 14
11 11 11
16 16 16
4 4 4
18 18 18
23 23 23
10 10 10
3 3 3
27 27 27
24 24 24
19 19 19
28 28 28
3 3 3
11 11 11
23 23 23
13 13 13
11 11 11
33 33 33
20 20 20
12 12 12
24 24 24
10 10 10
16 16 16
33 33 33
26 26 26
11 11 11
26 26 26
24 24 24
29 29 29
8 8 8
20 20 20
21 21 21
24 24 24
9 9 9
30 30 30
24 24 24
5 5 5
19 19 19
16 16 16
18 18 18
13 13 13
10 10 10
16 16 16
12 12 12
32 32 32
19 19 19
36 36 36
23 23 23
5 5 5
28 28 28
20 20 20
11 11 11
18 18 18
36 36 36
17 17 17
42 42 42
13 13 13
15 15 15
29 29 29
11 11 11
9 9 9
10 10 10
16 16 16
15 15 15
24 24 24
33 33 33
9 9 9
26 26 26
25 25 25
25 25 25
9 9 9
30 30 30
14 14 14
16 16 16
43 43 43
21 21 21
11 11 11
13 13 13
36 36 36
22 22 22
10 10 10
11 11 11
16 16 16
5 5 5
9 9 9
24 24 24
23 23 23
28 28 28
33 33 33
35 35 35
30 30 30
23 23 23
23 23 23
32 32 32
28 28 28
25 25 25
19 19 19
15 15 15
26 26 26
19 19 19
24 24 24
15 15 15
16 16 16
19 19 19
21 21 21
26 26 26
23 23 23
14 14 14
29 29 29
13 13 13
23 23 23
11 11 11
31 31 31
29 29 29
21 21 21
35 35 35
8 8 8
19 19 19
30 30 30
15 15 15
16 16 16
15 15 15
18 18 18
21 21 21
15 15 15
13 13 13
21 21 21
18 18 18
16 16 16
19 19 19
14 14 14
23 23 23
20 20 20
16 16 16
16 16 16
32 32 32
9 9 9
21 21 21
24 24 24
23 23 23
14 14 14
15 15 15
18 18 18
23 23 23
36 36 36
19 19 19
40 40 40
32 32 32
13 13 13
18 18 18
34 34 34
12 12 12
22 22 22
28 28 28
23 23 23
22 22 22
18 18 18
31 31 31
16 16 16
12 12 12
29 29 29
15 15 15
18 18 18
12 12 12
17 17 17
11 11 11
10 10 10
5 5 5
10 10 10
17 17 17
11 11 11
8 8 8
9 9 9
10 10 10
19 19 19
17 17 17
13 13 13
27 27 27
16 16 16
24 24 24
14 14 14
15 15 15
21 21 21
20 20 20
20 20 20
24 24 24
28 28 28
21 21 21
40 40 40
19 19 19
22 22 22
29 29 29
28 28 28
23 23 23
28 28 28
32 32 32
26 26 26
23 23 23
23 23 23
21 21 21
32 32 32
19 19 19
21 21 21
20 20 20
26 26 26
25 25 25
32 32 32
28 28 28
28 28 28
37 37 37
28 28 28
31 31 31
25 25 25
40 40 40
33 33 33
21 21 21
22 22 22
21 21 21
20 20 20
21 21 21
18 18 18
19 19 19
21 21 21
20 20 20
20 20 20
16 16 16
19 19 19
13 13 13
11 11 11
11 11 11
3 3 3
10 10 10
19 19 19
13 13 13
7 7 7
16 16 16
5 5 5
3 3 3
21 21 21
0 0 0
19 19 19
20 20 20
21 21 21
20 20 20
20 20 20
10 10 10
16 16 16
12 12 12
12 12 12
12 12 12
12 12 12
10 10 10
6 6 6
11 11 11
5 5 5
18 18 18
12 12 12
14 14 14
18 18 18
19 19 19
21 21 21
21 21 21
21 21 21
20 20 20
20 20 20
14 14 14
14 14 14
11 11 11
10 10 10
9 9 9
8 8 8
8 8 8
8 8 8
9 9 9
9 9 9
10 10 10
16 16 16
18 18 18
18 18 18
19 19 19
21 21 21
21 21 21
